<svg width="50" height="50" viewBox="0 0 50 50" fill="none" xmlns="http://www.w3.org/2000/svg">
<path d="M4.54545 9.09091H0V45.4545C0 47.9545 2.04545 50 4.54545 50H40.9091V45.4545H4.54545V9.09091ZM29.5455 31.8182H34.0909V9.09091H25V13.6364H29.5455V31.8182ZM45.4545 0H13.6364C11.1364 0 9.09091 2.04545 9.09091 4.54545V36.3636C9.09091 38.8636 11.1364 40.9091 13.6364 40.9091H45.4545C47.9545 40.9091 50 38.8636 50 36.3636V4.54545C50 2.04545 47.9545 0 45.4545 0ZM45.4545 36.3636H13.6364V4.54545H45.4545V36.3636Z" fill="#FF0000"/>
</svg>
