<svg width="50" height="50" viewBox="0 0 50 50" fill="none" xmlns="http://www.w3.org/2000/svg">
<path d="M45.4545 0H13.6364C11.1364 0 9.09091 2.04545 9.09091 4.54545V36.3636C9.09091 38.8636 11.1364 40.9091 13.6364 40.9091H45.4545C47.9545 40.9091 50 38.8636 50 36.3636V4.54545C50 2.04545 47.9545 0 45.4545 0ZM45.4545 36.3636H13.6364V4.54545H45.4545V36.3636ZM4.54545 9.09091H0V45.4545C0 47.9545 2.04545 50 4.54545 50H40.9091V45.4545H4.54545V9.09091ZM36.3636 27.2727V23.8636C36.3636 21.9773 34.8409 20.4545 32.9545 20.4545C34.8409 20.4545 36.3636 18.9318 36.3636 17.0455V13.6364C36.3636 11.1136 34.3182 9.09091 31.8182 9.09091H22.7273V13.6364H31.8182V18.1818H27.2727V22.7273H31.8182V27.2727H22.7273V31.8182H31.8182C34.3182 31.8182 36.3636 29.7955 36.3636 27.2727Z" fill="#0F2232"/>
</svg>
